<svg xmlns="http://www.w3.org/2000/svg" xmlns:xlink="http://www.w3.org/1999/xlink" width="1440" zoomAndPan="magnify" viewBox="0 0 1080 609.750004" height="813" preserveAspectRatio="xMidYMid meet" version="1.0"><defs><clipPath id="146b620eb3"><path d="M 0.222656 0 L 1079.777344 0 L 1079.777344 609.5 L 0.222656 609.5 Z M 0.222656 0 " clip-rule="nonzero"/></clipPath><clipPath id="5595c896a1"><path d="M 0.222656 371 L 1079.777344 371 L 1079.777344 609.5 L 0.222656 609.5 Z M 0.222656 371 " clip-rule="nonzero"/></clipPath></defs><g clip-path="url(#146b620eb3)"><path fill="#ffffff" d="M 0.222656 0 L 1079.777344 0 L 1079.777344 609.5 L 0.222656 609.5 Z M 0.222656 0 " fill-opacity="1" fill-rule="nonzero"/><path fill="#ffffff" d="M 0.222656 0 L 1079.777344 0 L 1079.777344 609.5 L 0.222656 609.5 Z M 0.222656 0 " fill-opacity="1" fill-rule="nonzero"/></g><g clip-path="url(#5595c896a1)"><path fill="#fec300" d="M -53.269531 371.953125 C 4.566406 373.164062 53.46875 425.828125 111.308594 427.035156 C 177.46875 428.421875 235.875 370.570312 302.035156 371.953125 C 359.871094 373.164062 408.773438 425.828125 466.613281 427.035156 C 532.769531 428.421875 591.179688 370.570312 657.335938 371.953125 C 715.175781 373.164062 764.078125 425.828125 821.914062 427.035156 C 888.074219 428.421875 946.480469 370.570312 1012.640625 371.953125 C 1070.476562 373.164062 1177.21875 427.035156 1177.21875 427.035156 L 1177.21875 756.484375 C 1177.21875 756.484375 1070.476562 702.609375 1012.640625 701.398438 C 946.480469 700.015625 888.074219 757.867188 821.914062 756.484375 C 764.078125 755.273438 715.175781 702.609375 657.335938 701.398438 C 591.179688 700.015625 532.769531 757.867188 466.613281 756.484375 C 408.773438 755.273438 359.871094 702.609375 302.035156 701.398438 C 235.875 700.015625 177.46875 757.867188 111.308594 756.484375 C 53.46875 755.273438 4.566406 702.609375 -53.269531 701.398438 C -119.429688 700.015625 -243.996094 756.484375 -243.996094 756.484375 L -243.996094 427.035156 C -192.40625 380.296875 -119.429688 370.570312 -53.269531 371.953125 Z M -53.269531 371.953125 " fill-opacity="1" fill-rule="nonzero"/></g></svg>