<svg id="visual" viewBox="0 0 2000 750" width="2000" height="750" xmlns="http://www.w3.org/2000/svg" xmlns:xlink="http://www.w3.org/1999/xlink" version="1.1"><rect x="0" y="0" width="2000" height="750" fill="#e9f3ff"></rect><path d="M0 641L47.7 613.8C95.3 586.7 190.7 532.3 285.8 528C381 523.7 476 569.3 571.2 583C666.3 596.7 761.7 578.3 857 567.3C952.3 556.3 1047.7 552.7 1143 560.7C1238.3 568.7 1333.7 588.3 1428.8 597.5C1524 606.7 1619 605.3 1714.2 582.5C1809.3 559.7 1904.7 515.3 1952.3 493.2L2000 471L2000 751L1952.3 751C1904.7 751 1809.3 751 1714.2 751C1619 751 1524 751 1428.8 751C1333.7 751 1238.3 751 1143 751C1047.7 751 952.3 751 857 751C761.7 751 666.3 751 571.2 751C476 751 381 751 285.8 751C190.7 751 95.3 751 47.7 751L0 751Z" fill="#fec300" stroke-linecap="round" stroke-linejoin="miter"></path></svg>