<svg id="visual" viewBox="0 0 2000 750" width="2000" height="750" xmlns="http://www.w3.org/2000/svg" xmlns:xlink="http://www.w3.org/1999/xlink" version="1.1"><rect x="0" y="0" width="2000" height="750" fill="#000000"></rect><path d="M0 485L23.8 497.5C47.7 510 95.3 535 143 553.3C190.7 571.7 238.3 583.3 286 581C333.7 578.7 381.3 562.3 428.8 548.7C476.3 535 523.7 524 571.2 515.2C618.7 506.3 666.3 499.7 714 523.2C761.7 546.7 809.3 600.3 857 623.8C904.7 647.3 952.3 640.7 1000 639.2C1047.7 637.7 1095.3 641.3 1143 617.8C1190.7 594.3 1238.3 543.7 1286 535.7C1333.7 527.7 1381.3 562.3 1428.8 583.5C1476.3 604.7 1523.7 612.3 1571.2 607.5C1618.7 602.7 1666.3 585.3 1714 585.5C1761.7 585.7 1809.3 603.3 1857 607.2C1904.7 611 1952.3 601 1976.2 596L2000 591L2000 751L1976.2 751C1952.3 751 1904.7 751 1857 751C1809.3 751 1761.7 751 1714 751C1666.3 751 1618.7 751 1571.2 751C1523.7 751 1476.3 751 1428.8 751C1381.3 751 1333.7 751 1286 751C1238.3 751 1190.7 751 1143 751C1095.3 751 1047.7 751 1000 751C952.3 751 904.7 751 857 751C809.3 751 761.7 751 714 751C666.3 751 618.7 751 571.2 751C523.7 751 476.3 751 428.8 751C381.3 751 333.7 751 286 751C238.3 751 190.7 751 143 751C95.3 751 47.7 751 23.8 751L0 751Z" fill="#65db32" stroke-linecap="round" stroke-linejoin="miter"></path></svg>